<svg xmlns="http://www.w3.org/2000/svg" viewBox="0 0 64 64" width="64" height="64">
  <defs>
    <linearGradient id="g" x1="0" y1="0" x2="0" y2="1">
      <stop offset="0" stop-color="#38bdf8"/>
      <stop offset="1" stop-color="#0284c7"/>
    </linearGradient>
  </defs>
  <rect width="64" height="64" rx="14" fill="url(#g)"/>
  <path d="M32 14a10 10 0 0 0-10 10v6h-2a3 3 0 0 0-3 3v13a3 3 0 0 0 3 3h24a3 3 0 0 0 3-3V33a3 3 0 0 0-3-3h-2v-6a10 10 0 0 0-10-10Zm0 6a4 4 0 0 1 4 4v6H28v-6a4 4 0 0 1 4-4Zm0 15a3 3 0 0 1 1.5 5.6V44a1.5 1.5 0 0 1-3 0v-3.4A3 3 0 0 1 32 35Z" fill="#fff"/>
</svg>
